# xmcd
#
# Track frame offsets:
#	150
#	17796
#	44076
#	60318
#	85243
#	104074
#	128361
#	149077
#	181239
#	206470
#	233089
#	251876
#	271458
#
# Disc length: 4034 seconds
#
# Revision: 1
# Processed by: cddbd v1.4PL0 Copyright (c) Steve Scherf et al.
# Submitted via: audiograbber 1.82.02
#
DISCID=bd0fc00d
DTITLE=Pete Kartsounes - The Colors of My Mind
DYEAR=1999
DGENRE=Blues
TTITLE0=Doin' Very Well
TTITLE1=Love Is Everything
TTITLE2=Take My Blues Away
TTITLE3=Today
TTITLE4=Music Is Love
TTITLE5=In Our Souls
TTITLE6=The May Pole
TTITLE7=Those Blues
TTITLE8=Put It Aside
TTITLE9=Everything's Gonna Be Alright
TTITLE10=Goodnight Sunshine
TTITLE11=Fix Your Wings
TTITLE12=Change
EXTD=
EXTT0=
EXTT1=
EXTT2=
EXTT3=
EXTT4=
EXTT5=
EXTT6=
EXTT7=
EXTT8=
EXTT9=
EXTT10=
EXTT11=
EXTT12=
PLAYORDER=
